<?xml version="1.0" encoding="utf-8"?>
<!-- Generator: Adobe Illustrator 16.0.0, SVG Export Plug-In . SVG Version: 6.00 Build 0)  -->
<!DOCTYPE svg PUBLIC "-//W3C//DTD SVG 1.1//EN" "http://www.w3.org/Graphics/SVG/1.1/DTD/svg11.dtd">
<svg version="1.1" id="Layer_1" xmlns="http://www.w3.org/2000/svg" xmlns:xlink="http://www.w3.org/1999/xlink" x="0px" y="0px"
	 width="141.732px" height="141.732px" viewBox="0 0 141.732 141.732" enable-background="new 0 0 141.732 141.732"
	 xml:space="preserve">
<path fill-rule="evenodd" clip-rule="evenodd" fill="#47B0E4" d="M70.518,6.431c-37.206,0-67.376,30.164-67.376,67.375
	c0,29.77,19.305,55.023,46.076,63.935c3.367,0.622,4.604-1.464,4.604-3.243c0-1.605-0.063-6.915-0.091-12.542
	c-18.745,4.074-22.7-7.951-22.7-7.951c-3.065-7.787-7.481-9.858-7.481-9.858c-6.113-4.182,0.461-4.097,0.461-4.097
	c6.765,0.475,10.328,6.945,10.328,6.945c6.009,10.299,15.762,7.322,19.607,5.601c0.604-4.354,2.35-7.329,4.278-9.012
	c-14.966-1.701-30.698-7.481-30.698-33.296c0-7.356,2.632-13.366,6.943-18.085c-0.7-1.698-3.006-8.55,0.652-17.831
	c0,0,5.658-1.81,18.533,6.908c5.375-1.493,11.139-2.242,16.864-2.269c5.725,0.027,11.493,0.775,16.878,2.269
	c12.861-8.717,18.51-6.908,18.51-6.908c3.667,9.281,1.361,16.133,0.663,17.831c4.317,4.719,6.933,10.729,6.933,18.085
	c0,25.879-15.762,31.575-30.764,33.244c2.416,2.091,4.569,6.191,4.569,12.476c0,9.015-0.079,16.271-0.079,18.49
	c0,1.794,1.214,3.895,4.628,3.234c26.756-8.92,46.037-34.168,46.037-63.926C137.893,36.594,107.728,6.431,70.518,6.431z"/>
<path fill="#1DC3EE" d="M28.661,103.167c-0.148,0.337-0.676,0.438-1.155,0.206c-0.489-0.221-0.763-0.677-0.604-1.012
	c0.145-0.345,0.672-0.439,1.161-0.213C28.55,102.369,28.829,102.833,28.661,103.167L28.661,103.167z M27.831,102.553"/>
<path fill="#1DC3EE" d="M31.39,106.211c-0.321,0.296-0.95,0.16-1.376-0.311c-0.441-0.471-0.523-1.099-0.197-1.402
	c0.331-0.296,0.94-0.156,1.381,0.313C31.64,105.285,31.725,105.909,31.39,106.211L31.39,106.211z M30.747,105.522"/>
<path fill="#1DC3EE" d="M34.046,110.092c-0.413,0.286-1.089,0.02-1.506-0.58c-0.413-0.601-0.413-1.318,0.01-1.606
	c0.417-0.289,1.083-0.029,1.505,0.564C34.468,109.08,34.468,109.798,34.046,110.092L34.046,110.092z M34.046,110.092"/>
<path fill="#1DC3EE" d="M37.686,113.84c-0.37,0.409-1.156,0.299-1.732-0.258c-0.589-0.543-0.752-1.314-0.383-1.723
	c0.375-0.406,1.166-0.292,1.745,0.261C37.902,112.662,38.079,113.438,37.686,113.84L37.686,113.84z M37.686,113.84"/>
<path fill="#1DC3EE" d="M42.707,116.019c-0.164,0.527-0.921,0.768-1.684,0.542c-0.762-0.23-1.26-0.85-1.106-1.383
	c0.158-0.53,0.919-0.781,1.688-0.541C42.365,114.868,42.864,115.48,42.707,116.019L42.707,116.019z M42.707,116.019"/>
<path fill="#1DC3EE" d="M48.221,116.423c0.018,0.554-0.629,1.014-1.43,1.024c-0.805,0.019-1.458-0.431-1.466-0.979
	c0-0.561,0.632-1.018,1.438-1.03C47.563,115.424,48.221,115.869,48.221,116.423L48.221,116.423z M48.221,116.423"/>
<path fill="#1DC3EE" d="M53.352,115.547c0.096,0.543-0.461,1.099-1.256,1.246c-0.782,0.146-1.506-0.19-1.606-0.728
	c-0.097-0.556,0.47-1.112,1.25-1.256C52.537,114.671,53.25,114.996,53.352,115.547L53.352,115.547z M53.352,115.547"/>
</svg>
